<?xml version="1.0" standalone="no"?>
<!DOCTYPE svg PUBLIC "-//W3C//DTD SVG 20010904//EN"
 "http://www.w3.org/TR/2001/REC-SVG-20010904/DTD/svg10.dtd">
<svg version="1.0" xmlns="http://www.w3.org/2000/svg"
 width="598.000000pt" height="598.000000pt" viewBox="0 0 598.000000 598.000000"
 preserveAspectRatio="xMidYMid meet">
<metadata>
Created by potrace 1.11, written by Peter Selinger 2001-2013
</metadata>
<g transform="translate(0.000000,598.000000) scale(0.100000,-0.100000)"
fill="#000000" stroke="none">
<path d="M2828 5975 c-2 -1 -57 -5 -123 -8 -142 -7 -315 -28 -315 -39 0 -4 6
-6 13 -3 35 11 132 17 317 20 198 2 280 -2 440 -26 132 -20 282 -49 292 -58 4
-3 -4 -37 -16 -76 -13 -38 -41 -124 -61 -190 -20 -66 -44 -140 -52 -165 -25
-76 -84 -264 -88 -280 -2 -8 -29 -95 -60 -193 -31 -98 -54 -181 -51 -184 11
-11 90 43 97 67 4 14 28 97 54 185 26 88 53 183 62 210 8 28 21 70 28 95 7 25
24 83 39 130 27 90 114 384 122 411 3 11 -6 19 -33 27 -50 14 -183 39 -258 47
-33 4 -63 9 -66 11 -3 2 -68 6 -145 10 -76 3 -151 7 -166 9 -15 1 -29 1 -30 0z"/>
<path d="M2348 5923 c6 -2 18 -2 25 0 6 3 1 5 -13 5 -14 0 -19 -2 -12 -5z"/>
<path d="M2605 5889 c-504 -31 -977 -196 -1375 -482 -103 -74 -200 -155 -200
-169 0 -7 353 -510 380 -541 4 -5 34 5 66 21 151 75 341 134 514 159 177 25
412 22 570 -6 30 -6 69 -13 85 -15 55 -10 239 -64 319 -95 44 -17 81 -30 82
-28 1 1 31 97 67 212 36 116 93 298 127 405 34 107 72 229 85 270 13 41 32
103 43 138 l20 62 -27 6 c-14 3 -32 8 -40 10 -8 3 -30 7 -50 10 -20 2 -45 7
-57 9 -11 2 -45 7 -75 10 -30 4 -60 8 -67 11 -12 3 -173 13 -307 17 -27 1 -99
-1 -160 -4z"/>
<path d="M4092 5658 l-33 -21 92 -49 c350 -188 697 -478 964 -805 6 -7 15 -18
21 -25 70 -86 227 -320 288 -431 124 -224 203 -416 296 -712 15 -49 50 -197
56 -235 3 -19 7 -41 10 -48 2 -8 7 -37 10 -65 4 -29 8 -55 10 -59 3 -4 18 1
35 10 29 16 30 19 25 67 -3 28 -8 61 -11 75 -3 14 -7 36 -10 50 -13 72 -71
280 -106 385 -168 495 -429 915 -799 1286 -178 178 -318 295 -494 413 -104 69
-305 187 -316 185 -3 0 -20 -10 -38 -21z"/>
<path d="M3997 5593 c-3 -5 -21 -62 -42 -128 -20 -66 -57 -185 -82 -265 -50
-160 -110 -354 -173 -560 -23 -74 -51 -162 -61 -195 l-20 -60 63 -54 c35 -30
115 -107 180 -173 64 -65 118 -114 120 -110 10 26 130 124 155 127 15 1 69 6
118 11 50 4 99 8 110 9 29 3 162 15 220 20 78 7 229 21 320 30 65 7 122 12
220 20 l79 7 -74 -68 c-40 -38 -85 -80 -100 -94 -14 -14 -82 -77 -149 -140
-68 -63 -142 -133 -165 -155 -134 -126 -303 -284 -330 -307 l-31 -27 24 -53
c12 -29 41 -96 63 -148 22 -52 43 -98 47 -102 5 -5 1184 -14 1254 -9 10 0 16
5 13 9 -3 5 -7 30 -11 56 -3 27 -7 51 -9 55 -2 3 -7 26 -10 51 -7 53 -59 263
-83 335 -142 430 -309 745 -570 1070 -82 102 -286 316 -378 396 -194 167 -383
298 -597 412 -94 51 -95 51 -101 40z"/>
<path d="M847 5052 l-27 -28 73 -90 c39 -50 125 -156 190 -237 l119 -147 23
18 c13 9 26 22 28 27 4 9 -64 100 -187 249 -19 23 -67 82 -106 131 -40 50 -76
93 -79 98 -4 4 -19 -6 -34 -21z"/>
<path d="M703 4903 c-221 -277 -398 -633 -502 -1013 -27 -98 -67 -324 -76
-425 -4 -44 -9 -89 -11 -100 -5 -25 -5 -378 0 -425 2 -19 7 -66 10 -105 3 -38
8 -80 10 -92 3 -11 7 -43 11 -70 3 -26 11 -71 17 -99 l11 -51 36 13 c20 7 88
29 151 49 l116 36 0 212 c-1 180 6 309 19 378 2 9 6 38 10 65 5 39 35 178 59
275 19 75 88 256 136 357 53 109 154 279 206 342 80 97 142 165 193 211 l61
54 -28 34 c-112 138 -346 427 -352 434 -3 4 -38 -32 -77 -80z"/>
<path d="M4897 4214 c-1 -1 -42 -5 -91 -9 -49 -4 -96 -8 -105 -10 -9 -1 -61
-6 -116 -10 -55 -4 -107 -8 -115 -10 -8 -1 -51 -6 -95 -10 -123 -10 -146 -15
-169 -36 l-21 -20 30 5 c17 3 66 8 110 11 44 3 87 8 95 10 8 2 53 7 100 10 47
3 99 8 115 10 17 2 70 7 118 10 47 4 95 8 104 10 10 2 37 4 59 4 26 1 51 8 65
21 l24 20 -53 -3 c-30 -1 -54 -3 -55 -3z"/>
<path d="M4847 4143 c-1 -1 -35 -4 -74 -8 -40 -3 -90 -7 -110 -9 -21 -2 -72
-7 -113 -11 -41 -4 -91 -8 -110 -10 -19 -3 -64 -7 -100 -10 -176 -14 -183 -16
-220 -48 -19 -16 -82 -74 -140 -128 -58 -53 -118 -109 -135 -124 -39 -35 -234
-215 -255 -235 -9 -8 -63 -58 -120 -110 -58 -52 -114 -104 -126 -115 -26 -25
-108 -100 -194 -179 -36 -33 -94 -87 -130 -120 -36 -34 -113 -105 -172 -159
l-106 -97 -154 113 c-84 62 -256 190 -382 285 -127 94 -232 170 -234 167 -3
-3 -6 -580 -3 -616 1 -4 63 -53 139 -110 75 -57 139 -107 142 -110 3 -3 79
-61 170 -130 91 -68 167 -126 170 -130 3 -3 23 -18 45 -34 22 -17 42 -32 45
-35 3 -3 22 -18 43 -34 l39 -28 31 28 c17 16 34 31 37 34 3 3 46 43 95 90 265
250 377 354 397 372 13 11 57 52 98 91 67 64 222 209 418 393 35 32 81 75 101
94 94 89 300 281 336 315 22 20 94 88 160 150 66 62 136 127 155 145 19 18 97
91 174 163 76 73 146 137 155 144 13 11 9 12 -27 10 -24 -1 -44 -3 -45 -4z"/>
<path d="M651 3683 c-1 -6 -4 -20 -7 -30 -5 -17 -5 -17 6 0 6 10 9 23 6 30 -3
9 -5 9 -5 0z"/>
<path d="M630 3628 c0 -4 -12 -50 -26 -103 -14 -53 -27 -104 -29 -113 -1 -9
-6 -37 -11 -62 -5 -25 -9 -49 -9 -55 -1 -5 -5 -32 -9 -60 -12 -86 -16 -145
-15 -300 0 -195 0 -188 5 -205 11 -34 19 12 14 77 -7 77 -4 272 4 365 11 114
35 252 66 371 11 44 18 82 15 85 -3 3 -5 3 -5 0z"/>
<path d="M1470 2623 c0 -557 4 -911 10 -932 11 -40 52 -86 95 -109 27 -14 131
-15 938 -16 499 -1 907 1 908 4 1 3 2 83 2 178 l2 172 -455 0 c-250 1 -609 1
-796 1 -315 0 -342 1 -346 17 -2 9 -3 369 -3 799 l1 781 -178 2 -178 1 0 -898z"/>
<path d="M1873 2745 c0 -746 1 -775 19 -775 17 0 18 29 18 775 0 741 -1 775
-18 775 -17 0 -18 -34 -19 -775z"/>
<path d="M4327 3452 c-16 -17 -17 -97 -17 -950 0 -909 0 -932 19 -932 19 0 19
23 19 950 0 523 -1 950 -2 950 -2 0 -10 -8 -19 -18z"/>
<path d="M4180 3313 c-36 -36 -111 -109 -167 -164 l-103 -99 0 -739 c0 -582 3
-740 13 -743 10 -3 297 -2 332 1 7 1 10 310 10 906 0 597 -3 905 -10 904 -5
-1 -39 -30 -75 -66z"/>
<path d="M617 2293 c-8 -12 57 -216 108 -343 92 -229 208 -433 360 -635 149
-198 300 -352 485 -495 25 -19 47 -37 50 -40 3 -3 35 -27 72 -52 73 -51 106
-48 36 2 -128 92 -202 154 -317 265 -326 314 -578 716 -721 1155 -15 47 -31
100 -35 118 -6 29 -27 43 -38 25z"/>
<path d="M455 2229 c-49 -22 -111 -49 -137 -61 l-46 -21 29 -81 c196 -531 523
-995 961 -1363 115 -96 294 -225 316 -227 7 -1 35 41 62 92 l48 92 -105 79
c-138 105 -247 203 -363 329 -117 127 -110 119 -145 167 -17 22 -32 42 -35 45
-3 3 -26 34 -51 70 -173 245 -309 524 -400 818 -17 56 -34 102 -38 101 -3 0
-46 -18 -96 -40z"/>
<path d="M3470 1746 c0 -140 3 -175 14 -179 8 -3 17 -3 20 1 4 3 6 84 5 179 0
164 -1 173 -20 173 -18 0 -19 -9 -19 -174z"/>
<path d="M3769 522 l-27 -16 28 -60 c61 -134 150 -316 154 -316 13 0 56 24 56
32 0 4 -30 72 -67 151 -37 78 -76 161 -87 185 -22 47 -21 46 -57 24z"/>
<path d="M1951 405 c-22 -47 -41 -92 -43 -101 -4 -23 134 -84 362 -160 202
-67 367 -101 634 -130 77 -8 384 -8 461 0 122 13 239 31 335 51 56 12 155 37
161 41 4 2 1 17 -6 32 -8 15 -47 98 -89 184 l-74 157 -55 -30 c-125 -67 -243
-106 -427 -139 -85 -15 -143 -18 -305 -15 -110 1 -216 6 -235 9 -19 4 -87 16
-150 27 -175 30 -339 78 -492 143 l-38 16 -39 -85z"/>
</g>
</svg>
